<?xml version="1.0" standalone="no"?>
<!DOCTYPE svg PUBLIC "-//W3C//DTD SVG 20010904//EN"
 "http://www.w3.org/TR/2001/REC-SVG-20010904/DTD/svg10.dtd">
<svg version="1.0" xmlns="http://www.w3.org/2000/svg"
 width="900.000000pt" height="902.000000pt" viewBox="0 0 900.000000 902.000000"
 preserveAspectRatio="xMidYMid meet">

<g transform="translate(0.000000,902.000000) scale(0.100000,-0.100000)"
fill="#000000" stroke="none">
<path d="M4396 8978 c-8 -40 -20 -307 -20 -483 -1 -154 1 -173 19 -205 27 -45
96 -87 168 -102 50 -11 68 -10 123 5 36 9 78 27 94 39 56 45 59 64 76 409 9
176 13 326 10 334 -4 12 -26 15 -106 15 -97 0 -100 -1 -100 -22 -2 -109 -30
-619 -35 -627 -10 -16 -32 -13 -39 5 -4 9 -1 127 5 263 6 135 9 278 7 316 l-3
70 -97 3 c-94 3 -98 2 -102 -20z"/>
<path d="M5051 8938 c-13 -29 -131 -678 -131 -717 0 -38 20 -49 98 -57 l60 -7
10 34 c6 19 15 66 22 104 11 74 29 139 36 132 3 -3 33 -241 34 -267 0 -3 4
-11 9 -19 9 -15 154 -41 171 -31 5 3 34 143 65 310 30 168 63 336 72 374 16
68 16 70 -5 86 -22 18 -141 35 -153 23 -4 -5 -17 -60 -29 -123 -11 -63 -24
-124 -27 -135 -6 -19 -6 -19 -14 2 -4 11 -13 68 -19 124 -15 141 -17 147 -43
163 -12 8 -50 17 -84 21 -59 7 -63 6 -72 -17z"/>
<path d="M3792 8935 c-40 -6 -78 -17 -84 -23 -7 -7 0 -79 26 -249 77 -505 79
-515 94 -521 15 -5 237 23 291 37 23 7 25 12 23 47 -2 21 -8 56 -13 78 l-10
39 -54 -7 c-63 -7 -68 -2 -79 79 -17 124 -77 511 -81 523 -5 14 -14 14 -113
-3z"/>
<path d="M3301 8834 c-63 -18 -119 -38 -124 -43 -10 -10 91 -761 104 -776 11
-11 142 20 177 42 22 13 23 19 17 78 -7 63 -7 64 18 70 35 9 42 3 57 -50 19
-69 26 -71 132 -41 50 14 93 28 95 30 2 2 -68 165 -155 362 -143 321 -162 359
-183 361 -13 1 -75 -14 -138 -33z m127 -334 c22 -58 43 -113 47 -122 4 -11 0
-20 -16 -28 -32 -18 -43 2 -58 107 -6 48 -14 104 -17 123 -8 51 0 37 44 -80z"/>
<path d="M5695 8818 c-31 -81 -235 -707 -235 -719 0 -13 24 -25 89 -47 49 -16
93 -27 98 -23 15 9 254 734 245 743 -11 11 -152 58 -174 58 -10 0 -21 -6 -23
-12z"/>
<path d="M5965 8742 c-3 -8 -44 -181 -91 -385 -69 -301 -82 -373 -72 -383 20
-19 249 -105 271 -102 13 2 43 46 91 133 201 361 296 535 298 545 2 10 -170
89 -194 90 -4 0 -51 -89 -104 -197 -111 -224 -102 -208 -109 -201 -3 3 6 38
19 79 35 108 97 340 94 351 -2 5 -47 26 -100 47 -81 32 -98 36 -103 23z"/>
<path d="M2865 8684 c-33 -13 -63 -28 -67 -32 -3 -4 13 -61 38 -126 25 -65 43
-123 41 -129 -3 -9 -80 76 -146 161 -25 32 -40 42 -61 42 -37 0 -140 -48 -140
-65 0 -8 52 -146 116 -307 64 -161 122 -312 129 -336 17 -54 32 -72 60 -72 31
0 135 49 135 64 0 9 -77 206 -107 274 -11 25 13 11 30 -17 14 -24 148 -194
176 -224 7 -7 148 46 164 62 5 5 -34 116 -86 248 -52 131 -114 288 -138 348
-45 117 -55 135 -73 135 -6 -1 -38 -12 -71 -26z"/>
<path d="M6589 8442 c-198 -335 -369 -633 -369 -644 0 -13 261 -174 292 -181
13 -2 78 101 78 125 0 10 -23 29 -55 48 -30 17 -55 35 -55 40 0 18 73 130 85
130 7 0 33 -11 57 -25 35 -20 47 -22 55 -13 17 23 63 106 63 115 0 5 -23 22
-50 38 -28 16 -49 32 -48 35 25 52 64 110 73 110 7 0 33 -12 59 -26 25 -14 50
-23 56 -19 14 8 70 106 70 122 0 7 -30 30 -67 52 -38 21 -103 59 -145 84 l-77
46 -22 -37z"/>
<path d="M2159 8357 c-70 -36 -121 -93 -140 -157 -16 -52 3 -110 88 -265 90
-165 164 -277 205 -309 69 -52 180 -42 275 26 62 45 96 99 100 161 4 45 -1 63
-36 135 -70 143 -185 335 -230 385 -39 43 -74 57 -140 57 -47 0 -72 -6 -122
-33z m220 -351 c67 -117 121 -221 121 -230 0 -23 -28 -32 -45 -15 -17 18 -255
436 -255 449 0 16 34 29 47 19 6 -6 66 -106 132 -223z"/>
<path d="M6797 7900 l-235 -319 74 -56 c41 -31 80 -58 87 -60 7 -3 55 54 112
130 98 133 126 156 133 109 2 -13 -32 -67 -93 -149 -52 -71 -95 -132 -94 -135
0 -3 34 -29 76 -59 l76 -54 21 25 c43 51 149 201 164 230 9 20 12 44 9 73 l-6
42 42 6 c34 4 50 15 86 54 50 54 91 134 91 176 0 15 -6 40 -14 55 -24 46 -127
136 -262 230 l-32 22 -235 -320z m353 41 c0 -9 -16 -38 -36 -64 -26 -36 -41
-47 -57 -45 -35 5 -30 29 19 91 37 48 48 56 60 46 8 -6 14 -19 14 -28z"/>
<path d="M1702 8023 c-39 -32 -71 -65 -71 -73 0 -8 107 -145 239 -305 132
-159 240 -294 240 -299 0 -15 30 3 104 65 l74 62 -55 66 c-30 36 -143 173
-251 304 -108 130 -199 237 -203 237 -4 0 -39 -26 -77 -57z"/>
<path d="M1370 7724 c-82 -81 -150 -152 -150 -158 0 -6 25 -36 56 -66 l55 -55
31 38 c16 20 38 37 48 37 10 0 109 -93 228 -216 179 -183 214 -214 229 -205
10 5 45 37 77 70 l60 61 -139 142 c-77 79 -153 157 -170 174 -16 16 -52 53
-79 82 l-49 51 36 41 c21 22 37 44 37 48 0 12 -94 102 -107 102 -7 0 -80 -66
-163 -146z"/>
<path d="M7484 7740 c-50 -25 -120 -93 -145 -142 -23 -46 -24 -86 -3 -209 20
-112 15 -140 -31 -186 -36 -36 -61 -40 -79 -11 -9 15 -2 26 37 66 26 26 47 54
47 63 0 8 -29 43 -63 77 l-64 63 -47 -52 c-56 -62 -86 -117 -86 -156 0 -42 53
-143 96 -185 78 -74 177 -98 237 -56 97 67 141 120 163 196 14 49 14 59 -7
167 -23 113 -23 117 -5 149 23 43 63 63 84 42 14 -13 11 -20 -22 -61 l-38 -45
66 -68 67 -67 54 58 c54 57 61 75 56 136 -6 68 -97 180 -176 217 -61 29 -88
30 -141 4z"/>
<path d="M1031 7363 c-54 -64 -91 -115 -89 -125 4 -24 505 -578 522 -578 8 0
36 26 63 58 85 100 83 87 28 142 -48 48 -48 50 -30 70 25 27 40 25 85 -10 21
-16 44 -30 52 -30 19 0 142 150 132 160 -7 6 -590 371 -660 413 -7 4 -48 -36
-103 -100z m217 -176 c6 -7 47 -37 92 -67 81 -55 94 -76 64 -101 -15 -12 -27
-3 -100 76 -46 50 -84 93 -84 98 0 11 17 8 28 -6z"/>
<path d="M7668 7144 c-150 -124 -283 -234 -295 -244 -13 -10 -23 -23 -23 -29
0 -7 28 -45 62 -86 61 -73 62 -74 84 -57 12 9 151 123 308 254 l285 236 -65
76 c-35 42 -69 76 -74 76 -5 0 -132 -102 -282 -226z"/>
<path d="M8138 7034 c-63 -38 -69 -53 -42 -105 8 -17 13 -36 11 -43 -3 -7
-123 -80 -266 -161 -144 -82 -261 -153 -261 -159 0 -10 82 -162 93 -173 2 -2
124 64 270 147 146 82 270 150 276 150 6 0 20 -18 31 -40 28 -54 48 -56 123
-8 26 17 47 37 45 44 -4 18 -212 384 -218 383 -3 0 -31 -16 -62 -35z"/>
<path d="M742 6998 c-5 -7 -22 -38 -37 -67 l-27 -55 25 -20 c13 -12 70 -47
127 -79 56 -32 99 -61 96 -64 -2 -3 -70 9 -151 27 -80 18 -151 30 -158 27 -6
-3 -29 -36 -50 -75 l-38 -71 148 -87 c81 -48 230 -136 331 -195 100 -60 189
-109 196 -109 18 0 38 25 69 86 32 63 38 55 -125 149 -65 37 -118 70 -118 72
0 3 10 3 23 0 65 -16 187 -47 222 -56 79 -21 86 -18 129 60 37 69 38 72 20 89
-11 9 -129 81 -264 160 -135 78 -272 160 -306 181 -63 40 -94 48 -112 27z"/>
<path d="M4082 6584 c-5 -10 -31 -86 -56 -167 -26 -81 -53 -150 -59 -152 -7
-2 -158 -7 -337 -10 -179 -3 -343 -7 -365 -10 -22 -2 -94 -9 -160 -15 -749
-67 -1246 -284 -1414 -617 -95 -189 -78 -430 48 -681 130 -260 357 -523 701
-816 234 -199 408 -321 705 -494 94 -55 171 -106 173 -114 1 -8 -8 -26 -22
-41 l-25 -27 -322 0 c-277 0 -320 -2 -316 -15 4 -8 57 -77 118 -155 l113 -140
70 -1 c202 -4 628 0 641 5 12 4 15 28 15 126 0 66 1 120 3 120 1 0 62 -27 135
-60 162 -73 413 -177 547 -225 314 -115 678 -232 885 -286 122 -31 124 -34 60
-62 -184 -81 -479 -84 -680 -8 -75 29 -189 98 -237 144 -78 74 -45 23 85 -134
156 -187 210 -237 316 -289 141 -70 214 -84 416 -83 146 0 188 4 255 22 105
28 205 76 286 138 37 28 72 53 78 57 7 5 46 -23 97 -68 46 -42 94 -78 107 -81
12 -3 171 -4 352 -3 l330 3 3 1063 c1 711 -1 1069 -8 1082 -21 39 -223 295
-235 298 -15 4 -23 -256 -30 -1063 -3 -324 -8 -684 -10 -800 -2 -115 -4 -225
-4 -242 l-1 -33 -118 0 c-70 0 -122 -4 -129 -11 -13 -13 -411 -20 -435 -7 -16
8 -18 26 -18 167 0 113 4 170 14 199 11 31 12 43 4 49 -7 3 -13 2 -16 -5 -10
-31 -112 -162 -178 -228 -87 -88 -63 -86 -254 -17 -407 147 -790 319 -1117
501 -176 98 -453 269 -482 297 -12 11 -14 58 -12 252 4 488 40 672 153 785 64
64 136 92 240 92 49 1 88 4 88 7 0 28 -45 144 -69 177 -56 77 -191 127 -263
98 -18 -7 -58 -16 -88 -20 -119 -14 -180 -49 -233 -132 -48 -76 -86 -210 -101
-354 -3 -25 -5 -186 -5 -358 -1 -266 -3 -313 -15 -310 -45 10 -427 384 -550
538 -162 204 -268 398 -318 580 -32 122 -32 317 1 410 82 230 278 401 604 527
154 59 570 153 680 153 35 0 90 -28 142 -73 l39 -34 -48 -154 c-27 -85 -51
-160 -53 -166 -10 -27 20 -11 114 60 149 112 156 117 173 117 17 0 34 -11 179
-123 l101 -77 -7 32 c-3 18 -21 83 -40 143 -19 61 -37 126 -40 146 -4 32 -1
39 29 59 72 50 237 174 235 177 -2 1 -79 5 -172 9 -94 4 -172 8 -174 10 -2 2
-27 78 -56 170 -42 134 -55 163 -63 148z"/>
<path d="M8353 6501 c-65 -54 -149 -127 -188 -161 -52 -45 -105 -78 -205 -127
-74 -36 -137 -67 -139 -69 -6 -5 60 -152 73 -163 8 -7 54 10 140 49 74 34 150
61 180 65 138 18 460 65 463 69 7 7 -71 158 -85 164 -8 3 -56 -5 -106 -17 -50
-12 -94 -21 -98 -21 -24 0 2 27 77 76 47 32 85 62 85 69 0 14 -69 165 -75 165
-3 0 -58 -45 -122 -99z"/>
<path d="M352 6160 c-97 -60 -154 -268 -95 -348 46 -63 158 -107 248 -100 46
4 65 13 127 58 122 89 140 100 168 100 70 0 128 -46 97 -77 -13 -13 -22 -13
-75 2 -34 10 -68 15 -75 12 -16 -6 -57 -117 -57 -153 0 -14 9 -25 28 -33 45
-18 134 -32 168 -25 47 9 109 66 141 132 24 48 28 69 28 138 0 72 -3 84 -27
116 -40 52 -106 81 -200 86 -99 6 -141 -9 -244 -89 -42 -32 -82 -59 -88 -60
-6 0 -18 -2 -27 -4 -8 -1 -30 3 -47 11 -25 10 -32 19 -32 40 0 25 2 26 38 19
83 -16 83 -17 109 60 31 91 28 106 -22 121 -62 19 -126 17 -163 -6z"/>
<path d="M8586 5794 c-114 -25 -372 -102 -414 -123 -97 -50 -134 -154 -97
-277 33 -112 122 -182 214 -170 134 18 472 118 521 154 14 11 35 36 48 58 20
34 22 50 19 119 -3 58 -10 92 -26 125 -57 112 -129 143 -265 114z m150 -205
c3 -6 0 -17 -7 -24 -18 -18 -485 -149 -504 -141 -8 3 -15 14 -15 25 0 22 25
31 305 110 144 40 209 49 221 30z"/>
<path d="M155 5648 c-7 -19 -74 -322 -72 -324 5 -5 742 -164 758 -164 10 0 20
8 23 18 11 34 59 258 63 292 l5 36 -69 16 c-44 11 -71 13 -78 7 -5 -5 -17 -36
-25 -67 l-16 -57 -43 2 c-23 1 -58 7 -78 14 l-35 11 7 57 c8 70 0 79 -82 87
l-61 7 -7 -41 c-3 -22 -12 -48 -19 -58 -12 -16 -17 -17 -67 -3 l-54 15 3 67
c2 65 2 67 -25 73 -16 3 -44 10 -63 15 -47 12 -60 11 -65 -3z"/>
<path d="M3270 5420 c0 -110 2 -200 4 -200 7 0 146 199 146 209 0 15 -130 191
-141 191 -5 0 -9 -87 -9 -200z"/>
<path d="M4750 5332 c0 -7 6 -27 14 -45 21 -50 45 -155 56 -241 5 -43 12 -355
15 -694 3 -339 8 -652 10 -695 14 -201 68 -311 180 -363 94 -44 85 -111 85
634 0 396 -4 691 -10 741 -24 187 -98 353 -242 541 -84 109 -108 137 -108 122z"/>
<path d="M8510 5134 c-203 -21 -340 -40 -347 -47 -13 -13 0 -174 16 -190 4 -4
66 -3 137 4 71 6 140 12 154 12 25 2 25 2 48 -80 7 -25 13 -28 57 -31 27 -2
59 -1 72 3 23 5 24 8 17 65 -7 66 -12 62 83 74 50 7 56 1 63 -74 l5 -55 74 2
c45 1 77 7 82 14 7 12 6 38 -15 229 l-11 105 -50 2 c-27 0 -201 -14 -385 -33z"/>
<path d="M148 5130 c-49 -15 -86 -50 -115 -108 -37 -76 -39 -193 -5 -259 46
-88 103 -108 369 -132 188 -17 277 -15 323 9 69 35 110 118 110 223 0 83 -18
135 -61 178 -31 31 -51 40 -112 54 -41 9 -90 15 -108 13 l-34 -3 -8 -89 c-4
-49 -6 -95 -3 -101 2 -7 36 -15 77 -19 79 -8 109 -19 109 -40 0 -36 -23 -37
-260 -15 -129 11 -244 25 -257 30 -18 6 -23 15 -21 32 3 21 6 22 110 19 124
-3 112 -14 123 120 5 61 4 79 -7 82 -29 9 -205 14 -230 6z"/>
<path d="M335 4498 c-218 -14 -313 -23 -320 -32 -6 -8 -8 -45 -5 -87 l5 -74
143 4 c78 2 142 -1 142 -5 0 -5 -52 -29 -116 -53 -156 -60 -159 -63 -157 -146
2 -86 10 -96 82 -90 31 3 166 12 301 20 454 28 426 20 415 119 -11 93 7 88
-223 71 -44 -3 -62 -1 -60 7 2 6 57 30 122 54 65 24 125 49 133 56 12 9 13 27
8 87 -4 42 -9 79 -12 83 -6 11 -107 8 -458 -14z"/>
<path d="M8311 4511 c-80 -21 -133 -101 -139 -211 -10 -174 70 -262 241 -264
l82 -1 0 100 0 100 -81 6 c-45 3 -86 9 -93 13 -16 11 -13 46 5 53 8 3 126 1
261 -5 256 -11 285 -17 270 -56 -5 -13 -25 -16 -115 -16 l-109 0 -7 -96 c-3
-52 -4 -99 -1 -105 10 -15 208 -11 247 6 44 18 92 71 109 122 8 21 14 72 14
113 -1 129 -55 205 -165 229 -60 13 -476 23 -519 12z"/>
<path d="M725 3986 c-44 -13 -45 -19 -34 -121 l4 -40 -67 -14 c-77 -16 -98
-11 -98 23 0 47 -18 76 -45 76 -34 0 -114 -20 -120 -31 -3 -4 0 -28 7 -53 15
-58 4 -73 -69 -82 -63 -8 -73 0 -73 56 0 42 -15 60 -48 60 -29 0 -103 -20
-116 -31 -5 -5 5 -76 24 -170 l34 -161 45 5 c41 4 561 110 684 138 28 7 47 17
47 25 0 8 -11 67 -25 131 -14 65 -25 130 -25 145 0 54 -43 69 -125 44z"/>
<path d="M8230 3929 c-76 -32 -130 -128 -130 -232 0 -98 34 -168 100 -202 56
-29 417 -96 517 -96 116 0 192 88 201 232 8 131 -42 203 -164 234 -207 53
-474 86 -524 64z m282 -229 c119 -22 228 -44 242 -50 29 -11 35 -37 10 -47
-28 -10 -496 75 -516 95 -16 16 -2 42 25 42 12 0 120 -18 239 -40z"/>
<path d="M835 3555 c-22 -7 -179 -54 -350 -105 -171 -51 -313 -96 -316 -102
-3 -5 6 -50 21 -101 23 -76 31 -92 46 -89 11 2 181 51 379 110 411 123 374 98
332 227 -25 79 -37 85 -112 60z"/>
<path d="M8043 3418 c-6 -7 -20 -42 -32 -78 -25 -77 -27 -75 83 -116 39 -15
107 -42 150 -60 44 -19 87 -34 96 -34 9 0 25 -7 36 -15 22 -17 13 -18 -36 -5
-132 34 -337 80 -356 80 -17 0 -29 -11 -44 -40 -39 -76 -63 -55 308 -257 35
-19 61 -37 59 -40 -3 -2 -34 7 -69 22 -99 42 -338 135 -346 135 -4 0 -21 -35
-37 -77 -17 -42 -31 -80 -33 -84 -2 -4 52 -28 120 -54 68 -27 231 -91 363
-143 162 -64 244 -91 253 -85 18 11 96 218 89 236 -5 13 -185 119 -224 131
-12 4 -27 14 -35 23 -15 19 -28 21 165 -28 109 -27 131 -30 142 -18 7 8 32 61
54 119 32 85 37 108 27 118 -7 7 -144 64 -304 127 -160 63 -309 123 -331 134
-46 24 -84 27 -98 9z"/>
<path d="M810 3226 c-93 -34 -100 -37 -100 -48 0 -5 13 -40 29 -76 15 -37 31
-75 34 -84 8 -24 25 -23 101 8 76 30 101 29 101 -6 0 -23 -18 -32 -220 -117
-224 -94 -270 -106 -282 -76 -9 23 23 46 108 78 39 15 73 34 76 42 6 14 -41
140 -63 171 -11 15 -17 14 -77 -12 -159 -68 -203 -120 -195 -235 11 -143 110
-261 220 -261 70 0 425 141 519 205 56 40 83 102 75 173 -13 107 -73 204 -149
241 -56 27 -97 26 -177 -3z"/>
<path d="M7716 2688 c-33 -61 -42 -86 -34 -95 6 -7 64 -43 129 -79 66 -36 119
-72 119 -79 0 -7 -11 -37 -25 -67 -26 -56 -32 -116 -15 -148 26 -48 233 -162
294 -162 44 0 89 25 119 64 36 49 147 245 147 261 0 7 -71 53 -157 102 -87 48
-236 132 -331 187 -95 54 -179 98 -187 98 -7 0 -34 -37 -59 -82z m509 -409
c16 -15 -20 -42 -47 -36 -33 9 -118 64 -124 82 -4 8 -1 22 5 29 10 12 24 8 84
-26 40 -22 76 -44 82 -49z"/>
<path d="M1059 2717 c-97 -59 -110 -69 -135 -114 -21 -35 -28 -64 -35 -146 -4
-56 -8 -112 -9 -125 0 -35 -54 -84 -87 -80 -43 5 -40 33 6 64 23 15 41 32 41
39 0 19 -84 154 -96 155 -25 0 -120 -77 -138 -114 -17 -34 -17 -44 -6 -95 16
-71 41 -121 87 -172 47 -51 81 -69 135 -69 79 1 193 71 229 141 15 31 23 71
29 154 4 61 12 120 18 131 29 55 106 91 130 61 19 -22 7 -39 -59 -79 -33 -21
-58 -41 -56 -45 43 -78 91 -153 99 -153 16 0 112 66 142 99 25 25 30 42 34 91
5 69 -12 125 -59 189 -76 106 -168 129 -270 68z"/>
<path d="M7460 2259 c-60 -27 -127 -93 -156 -154 -41 -86 -28 -161 39 -224 44
-42 475 -401 481 -401 7 0 126 149 126 158 0 6 -110 101 -244 211 -135 111
-248 206 -251 211 -4 6 -1 18 6 26 10 13 15 12 38 -2 27 -18 230 -183 390
-316 51 -44 98 -77 105 -75 6 2 38 37 72 78 l62 74 -151 125 c-220 183 -348
281 -384 296 -44 19 -80 17 -133 -7z"/>
<path d="M1438 2059 l-156 -143 25 -31 c62 -74 136 -146 147 -141 6 3 21 13
33 21 12 10 24 12 27 7 8 -13 -222 -214 -237 -209 -7 2 -13 13 -15 24 -2 15
12 34 47 64 28 24 51 51 51 59 0 22 -117 140 -139 140 -21 0 -91 -72 -115
-118 -22 -42 -20 -128 3 -177 27 -58 85 -120 134 -144 56 -27 135 -28 185 -2
36 19 336 288 371 333 53 67 66 149 35 214 -23 48 -78 93 -123 100 -34 5 -38
9 -38 36 0 21 -11 41 -40 69 l-40 40 -155 -142z m232 -123 c9 -12 3 -24 -31
-61 -42 -46 -97 -90 -103 -84 -2 2 -6 17 -10 33 -6 26 -1 34 46 77 54 51 77
59 98 35z"/>
<path d="M7014 1806 c-64 -59 -68 -65 -57 -87 7 -13 100 -118 207 -234 l194
-210 -34 -35 c-33 -35 -42 -63 -26 -86 4 -6 26 -27 49 -48 l41 -37 84 77 c191
177 228 215 228 238 0 25 -67 96 -90 96 -8 -1 -31 -14 -50 -30 -19 -17 -37
-30 -41 -30 -4 0 -101 101 -215 225 -113 124 -210 225 -214 225 -4 0 -39 -29
-76 -64z"/>
<path d="M1720 1500 c-135 -164 -245 -303 -245 -308 0 -13 111 -102 127 -102
7 0 51 48 98 105 47 58 87 100 89 94 4 -12 -34 -116 -66 -181 -25 -51 -29 -88
-13 -118 9 -17 101 -90 113 -90 3 0 79 89 169 198 90 109 192 233 228 276 36
43 74 92 84 108 l19 30 -39 34 c-21 19 -51 43 -66 54 l-26 20 -97 -117 c-54
-65 -102 -120 -107 -121 -5 -2 0 13 11 35 20 40 111 258 111 267 0 7 -132 116
-139 116 -4 0 -116 -135 -251 -300z"/>
<path d="M6665 1519 c-77 -56 -141 -102 -143 -104 -2 -2 18 -32 44 -68 l47
-66 58 40 c32 21 60 39 63 39 3 0 26 -28 51 -62 l46 -63 -48 -41 -48 -41 38
-57 c20 -31 44 -56 51 -56 8 0 28 11 44 25 44 37 66 32 101 -21 17 -25 31 -49
31 -55 0 -5 -23 -25 -50 -45 l-50 -36 17 -30 c10 -16 32 -46 49 -66 l31 -36
137 98 c83 59 135 103 133 111 -8 18 -447 630 -455 632 -4 1 -70 -43 -147 -98z"/>
<path d="M2170 1133 c-118 -173 -216 -318 -217 -321 -2 -4 35 -33 82 -65 l85
-58 45 63 c138 193 388 566 392 583 2 15 -13 31 -68 68 -39 26 -78 47 -87 46
-11 0 -99 -120 -232 -316z"/>
<path d="M6373 1328 c-40 -24 -73 -49 -73 -57 0 -8 36 -77 80 -153 44 -77 77
-144 74 -149 -11 -18 -43 -8 -62 19 -10 15 -49 80 -86 145 l-68 117 -32 -19
c-17 -10 -53 -31 -81 -46 -27 -16 -51 -30 -53 -31 -2 -1 32 -64 75 -139 79
-139 107 -170 159 -179 16 -2 30 -5 32 -5 2 -1 -4 -11 -12 -23 -22 -32 -20
-55 13 -124 55 -116 130 -174 204 -159 54 11 318 155 317 173 -1 4 -86 156
-189 337 -134 235 -193 331 -207 333 -10 1 -52 -17 -91 -40z m199 -548 c38
-65 40 -80 9 -80 -44 0 -104 114 -74 144 13 13 29 -2 65 -64z"/>
<path d="M2540 1120 c-49 -99 -90 -184 -90 -190 0 -10 153 -90 197 -104 19 -6
25 0 44 36 18 36 20 47 10 72 -9 26 -7 37 23 90 26 48 38 61 57 61 14 0 25 -7
27 -16 2 -9 -48 -117 -110 -240 -95 -189 -117 -225 -137 -227 -21 -3 -23 -1
-19 25 3 15 17 54 31 85 l26 57 -87 42 c-62 29 -91 38 -102 32 -24 -16 -59
-114 -60 -167 0 -30 8 -66 21 -92 47 -98 211 -168 312 -135 61 20 110 90 212
295 107 217 120 256 106 316 -20 92 -98 153 -192 152 -52 -1 -59 1 -59 18 0
13 -16 28 -50 45 -27 14 -54 25 -60 25 -5 0 -50 -81 -100 -180z"/>
<path d="M3135 1050 c-15 -25 -95 -276 -95 -300 0 -14 8 -41 19 -60 l18 -35
-39 -17 c-31 -14 -44 -28 -63 -71 -24 -51 -43 -127 -39 -154 1 -7 2 -24 3 -37
2 -36 48 -85 100 -108 25 -11 98 -38 161 -59 91 -31 117 -36 126 -27 18 19
247 717 241 733 -6 15 -171 70 -186 61 -5 -4 -33 -76 -61 -162 -41 -123 -55
-154 -69 -152 -29 6 -23 60 24 198 25 74 45 137 45 141 0 8 -146 59 -167 59
-6 0 -15 -5 -18 -10z m79 -529 c6 -9 -32 -130 -45 -145 -5 -5 -15 -4 -25 4
-31 26 7 150 46 150 10 0 21 -4 24 -9z"/>
<path d="M5680 974 c-30 -14 -77 -43 -103 -66 -46 -38 -49 -39 -67 -23 -10 9
-27 14 -37 12 -10 -3 -58 -17 -107 -32 l-89 -27 63 -63 63 -63 -22 -28 c-11
-14 -21 -36 -21 -47 0 -32 33 -127 43 -127 6 0 25 18 44 40 40 47 54 49 100
14 50 -38 67 -77 52 -121 -19 -59 -7 -145 27 -194 41 -60 116 -93 193 -86 93
8 190 69 228 142 42 78 2 215 -78 271 -22 15 -39 28 -39 30 0 2 14 24 32 49
25 36 32 54 31 92 -1 74 -21 130 -61 175 -71 79 -156 97 -252 52z m69 -168
c20 -23 24 -79 8 -100 -14 -19 -16 -18 -63 27 l-49 47 24 20 c27 23 64 26 80
6z m90 -403 c28 -35 36 -70 20 -89 -33 -41 -87 17 -75 82 8 41 27 44 55 7z"/>
<path d="M3636 895 c-9 -9 -16 -29 -16 -43 0 -15 -4 -41 -9 -59 -12 -40 0 -51
61 -59 25 -4 52 -10 59 -14 15 -10 14 -96 -2 -137 -9 -24 -12 -25 -68 -18 -33
4 -61 3 -64 -2 -4 -6 -9 -39 -13 -76 l-7 -66 39 -7 c71 -12 77 -20 71 -77 -9
-71 -21 -81 -80 -65 -34 9 -50 9 -58 1 -13 -13 -28 -77 -29 -120 0 -38 -11
-34 166 -63 122 -20 174 -25 174 -15 0 3 27 168 60 366 54 321 66 409 58 409
-13 1 -288 51 -304 55 -13 4 -27 0 -38 -10z"/>
<path d="M4885 833 c-60 -7 -114 -18 -119 -23 -6 -6 -6 -35 0 -77 l9 -68 72
-3 c83 -3 84 -5 87 -105 l1 -52 -47 -3 c-63 -4 -71 -17 -63 -98 l8 -67 57 6
c40 5 61 3 68 -6 14 -18 21 -114 8 -127 -5 -5 -29 -10 -52 -10 -55 0 -78 -22
-70 -64 4 -17 9 -48 13 -68 7 -45 -2 -44 171 -23 178 21 172 19 172 60 0 51
-79 725 -86 737 -7 11 -101 8 -229 -9z"/>
<path d="M4071 811 c-10 -7 -15 -87 -23 -391 -6 -212 -6 -385 -2 -390 5 -4 62
-10 127 -13 89 -3 121 -1 131 9 7 7 21 66 30 131 27 191 27 191 36 168 5 -11
9 -40 9 -64 1 -75 24 -225 35 -238 7 -7 57 -13 136 -15 l125 -3 6 135 c4 74 8
252 10 395 l4 260 -90 0 -90 0 -5 -177 c-8 -251 -17 -250 -45 2 -21 191 -21
190 -89 190 -33 0 -58 -5 -63 -12 -4 -7 -19 -84 -33 -171 -14 -87 -29 -157
-34 -155 -5 2 -8 75 -7 171 l3 167 -65 0 c-36 0 -71 2 -79 5 -7 3 -19 1 -27
-4z"/>
</g>
</svg>
