<?xml version="1.0" standalone="no"?>
<!DOCTYPE svg PUBLIC "-//W3C//DTD SVG 20010904//EN"
 "http://www.w3.org/TR/2001/REC-SVG-20010904/DTD/svg10.dtd">
<svg version="1.0" xmlns="http://www.w3.org/2000/svg"
 width="94.000000pt" height="94.000000pt" viewBox="0 0 94.000000 94.000000"
 preserveAspectRatio="xMidYMid meet">

<g transform="translate(0.000000,94.000000) scale(0.100000,-0.100000)"
fill="#000000" stroke="none">
<path d="M469 715 c-1 -77 -4 -129 -6 -116 -3 13 -21 42 -41 64 -21 22 -36 43
-34 48 7 27 -17 -3 -88 -112 -44 -66 -78 -124 -76 -128 8 -12 232 -141 245
-141 12 0 217 115 238 134 10 9 -14 53 -103 191 -64 99 -120 184 -125 190 -5
5 -10 -48 -10 -130z"/>
<path d="M230 403 c0 -10 232 -323 239 -323 8 0 241 315 241 325 0 4 -12 -3
-26 -14 -15 -12 -33 -21 -41 -21 -8 0 -11 -5 -7 -12 4 -6 3 -8 -4 -4 -5 3 -44
-12 -86 -35 l-75 -40 -120 64 c-67 36 -121 63 -121 60z"/>
</g>
</svg>
